# xmcd
#
# Track frame offsets:
#	150
#	11948
#	23363
#	34216
#	44131
#	53829
#	63122
#	73720
#	82585
#	94308
#	106353
#	117108
#
# Disc length: 1701 seconds
#
# Revision: 1
# Processed by: cddbd v1.5.2PL0 Copyright (c) Steve Scherf et al.
# Submitted via: audiograbber 1.83.01
#
DISCID=9606a30c
DTITLE=Del Reeves - The Very Best Of
DYEAR=1974
DGENRE=Country
TTITLE0=Girl On the Billboard
TTITLE1=Belles Of Southern Bell
TTITLE2=Women Do Funny Things To Me
TTITLE3=Gettin' Any Feed For Your Chickens
TTITLE4=This Must Be The Bottom
TTITLE5=A Dime At A Time
TTITLE6=Looking At The World Throught A Windshield
TTITLE7=Good Time Charley's 
TTITLE8=Be Glad
TTITLE9=A Lover's Question
TTITLE10=The Philadelpha Fillies
TTITLE11=Lay A Little Lovin' On Me
EXTD=
EXTT0=
EXTT1=
EXTT2=
EXTT3=
EXTT4=
EXTT5=
EXTT6=
EXTT7=
EXTT8=
EXTT9=
EXTT10=
EXTT11=
PLAYORDER=
